# xmcd
#
# Track frame offsets:
#	150
#	20226
#	41584
#	59485
#	75458
#	95858
#	109435
#	124078
#	141556
#	165031
#	178422
#	193948
#	214048
#	234878
#
# Disc length: 3373 seconds
#
# Revision: 2
# Processed by: cddbd v1.5.2PL0 Copyright (c) Steve Scherf et al.
# Submitted via: EasyCDDAExtractor 2010.4.0.0
#
DISCID=ce0d2b0e
DTITLE=Chris Farlowe - Farlowe That !
DYEAR=2003
DGENRE=Rythm and Blues
TTITLE0=Back In Trouble 
TTITLE1=Sending Me Angels 
TTITLE2=A Matter Of Time 
TTITLE3=Let's Get Together 
TTITLE4=I'll Leave The Light On 
TTITLE5=Ain't No Big Deal 
TTITLE6=Lonesome Whistle 
TTITLE7=As Long As I Can See The Light 
TTITLE8=Sitting On Top Of The World 
TTITLE9=Living It Down 
TTITLE10=Nina 
TTITLE11=I'll Sing The Blues For You  
TTITLE12=Borderline 
TTITLE13=Only You
EXTD=
EXTT0=
EXTT1=
EXTT2=
EXTT3=
EXTT4=
EXTT5=
EXTT6=
EXTT7=
EXTT8=
EXTT9=
EXTT10=
EXTT11=
EXTT12=
EXTT13=
PLAYORDER=
